<?xml version="1.0" encoding="utf-8"?>
<!-- Generator: Adobe Illustrator 24.3.0, SVG Export Plug-In . SVG Version: 6.00 Build 0)  -->
<svg version="1.1" id="Layer_1" xmlns="http://www.w3.org/2000/svg" xmlns:xlink="http://www.w3.org/1999/xlink" x="0px" y="0px"
	 viewBox="0 0 1080 1080" style="enable-background:new 0 0 1080 1080;" xml:space="preserve">
<style type="text/css">
	.st0{fill:#FFFFFF;}
</style>
<g>
	<g>
		<g>
			<path class="st0" d="M451.92,801.27c-144.06,0-261.27-117.2-261.27-261.27c0-144.06,117.21-261.27,261.27-261.27
				S713.19,395.94,713.19,540C713.19,684.07,595.99,801.27,451.92,801.27z M451.92,283.28c-141.55,0-256.72,115.16-256.72,256.72
				c0,141.55,115.16,256.72,256.72,256.72S708.64,681.55,708.64,540C708.64,398.45,593.48,283.28,451.92,283.28z"/>
		</g>
		<g>
			<path class="st0" d="M586.12,803.93c-103.09,0-186.96-118.4-186.96-263.93c0-145.53,83.87-263.93,186.96-263.93
				c103.09,0,186.96,118.4,186.96,263.93C773.08,685.53,689.21,803.93,586.12,803.93z M586.12,285.94
				c-97.65,0-177.09,113.97-177.09,254.06c0,140.09,79.44,254.06,177.09,254.06S763.21,680.09,763.21,540
				C763.21,399.91,683.77,285.94,586.12,285.94z"/>
		</g>
		<g>
			<path class="st0" d="M720.32,806.58c-63.17,0-112.64-117.1-112.64-266.58c0-149.48,49.48-266.58,112.64-266.58
				c63.16,0,112.64,117.1,112.64,266.58C832.96,689.49,783.48,806.58,720.32,806.58z M720.32,288.6
				c-52.83,0-97.47,115.13-97.47,251.4s44.63,251.4,97.47,251.4c52.83,0,97.46-115.13,97.46-251.4S773.15,288.6,720.32,288.6z"/>
		</g>
		<g>
			<path class="st0" d="M854.52,809.24c-15.38,0-23.24-22.24-30.05-85c-5.34-49.27-8.29-114.7-8.29-184.24s2.94-134.97,8.29-184.24
				c6.8-62.76,14.67-85,30.05-85c15.38,0,23.24,22.24,30.04,85c5.34,49.27,8.29,114.7,8.29,184.24c0,69.54-2.94,134.97-8.29,184.24
				C877.76,786.99,869.89,809.24,854.52,809.24z M854.52,299.93c-7.79,27.51-17.84,106.89-17.84,240.07s10.05,212.56,17.84,240.07
				c7.79-27.51,17.84-106.89,17.84-240.07C872.35,406.83,862.31,327.44,854.52,299.93z"/>
		</g>
	</g>
</g>
</svg>
